<mxfile host="app.diagrams.net" modified="2023-06-21T06:26:06.913Z" agent="Mozilla/5.0 (Windows NT 10.0; Win64; x64) AppleWebKit/537.36 (KHTML, like Gecko) Chrome/112.0.0.0 YaBrowser/23.5.2.625 Yowser/2.5 Safari/537.36" etag="c_lSoFLFErHjMRaZe7Gi" version="21.5.0" type="device">
  <diagram name="Страница 1" id="lVOjMPqvB3OVgL1nsw0Q">
    <mxGraphModel dx="1800" dy="958" grid="1" gridSize="10" guides="1" tooltips="1" connect="1" arrows="1" fold="1" page="1" pageScale="1" pageWidth="827" pageHeight="1169" math="0" shadow="0">
      <root>
        <mxCell id="0" />
        <mxCell id="1" parent="0" />
        <mxCell id="rLwI7hU8ghGMNSgPjJ39-1" value="" style="rounded=0;whiteSpace=wrap;html=1;" parent="1" vertex="1">
          <mxGeometry x="80" y="70" width="1170" height="51" as="geometry" />
        </mxCell>
        <mxCell id="rLwI7hU8ghGMNSgPjJ39-2" value="TEXT" style="rounded=0;whiteSpace=wrap;html=1;" parent="1" vertex="1">
          <mxGeometry x="100" y="80.5" width="60" height="30" as="geometry" />
        </mxCell>
        <mxCell id="rLwI7hU8ghGMNSgPjJ39-8" value="BUTTON" style="rounded=0;whiteSpace=wrap;html=1;" parent="1" vertex="1">
          <mxGeometry x="1030" y="80.5" width="90" height="30" as="geometry" />
        </mxCell>
        <mxCell id="rLwI7hU8ghGMNSgPjJ39-9" value="BUTTON" style="rounded=0;whiteSpace=wrap;html=1;" parent="1" vertex="1">
          <mxGeometry x="920" y="80.5" width="90" height="30" as="geometry" />
        </mxCell>
        <mxCell id="rLwI7hU8ghGMNSgPjJ39-10" value="" style="rounded=0;whiteSpace=wrap;html=1;" parent="1" vertex="1">
          <mxGeometry x="80" y="120" width="1170" height="320" as="geometry" />
        </mxCell>
        <mxCell id="rLwI7hU8ghGMNSgPjJ39-11" value="TEXT" style="rounded=0;whiteSpace=wrap;html=1;fontSize=34;" parent="1" vertex="1">
          <mxGeometry x="105" y="190" width="355" height="120" as="geometry" />
        </mxCell>
        <mxCell id="rLwI7hU8ghGMNSgPjJ39-12" value="TEXT" style="rounded=0;whiteSpace=wrap;html=1;" parent="1" vertex="1">
          <mxGeometry x="105" y="320" width="345" height="20" as="geometry" />
        </mxCell>
        <mxCell id="rLwI7hU8ghGMNSgPjJ39-13" value="BUTTON" style="rounded=0;whiteSpace=wrap;html=1;" parent="1" vertex="1">
          <mxGeometry x="105" y="360" width="225" height="40" as="geometry" />
        </mxCell>
        <mxCell id="rLwI7hU8ghGMNSgPjJ39-14" value="&lt;font style=&quot;font-size: 30px;&quot;&gt;IMAGE&lt;/font&gt;" style="rounded=0;whiteSpace=wrap;html=1;fontSize=48;" parent="1" vertex="1">
          <mxGeometry x="990" y="325" width="120" height="90" as="geometry" />
        </mxCell>
        <mxCell id="rLwI7hU8ghGMNSgPjJ39-16" value="" style="rounded=0;whiteSpace=wrap;html=1;" parent="1" vertex="1">
          <mxGeometry x="80" y="440" width="1170" height="405" as="geometry" />
        </mxCell>
        <mxCell id="rLwI7hU8ghGMNSgPjJ39-17" value="VIDEO" style="rounded=0;whiteSpace=wrap;html=1;fontSize=48;" parent="1" vertex="1">
          <mxGeometry x="887.5" y="460" width="252.5" height="160" as="geometry" />
        </mxCell>
        <mxCell id="rLwI7hU8ghGMNSgPjJ39-20" value="BUTTON" style="rounded=0;whiteSpace=wrap;html=1;fontSize=20;" parent="1" vertex="1">
          <mxGeometry x="175" y="585" width="125" height="40" as="geometry" />
        </mxCell>
        <mxCell id="rLwI7hU8ghGMNSgPjJ39-21" value="TEXT" style="rounded=0;whiteSpace=wrap;html=1;fontSize=20;" parent="1" vertex="1">
          <mxGeometry x="700" y="640" width="290" height="40" as="geometry" />
        </mxCell>
        <mxCell id="rLwI7hU8ghGMNSgPjJ39-22" value="TEXT" style="rounded=0;whiteSpace=wrap;html=1;fontSize=20;" parent="1" vertex="1">
          <mxGeometry x="560" y="480" width="140" height="130" as="geometry" />
        </mxCell>
        <mxCell id="rLwI7hU8ghGMNSgPjJ39-25" value="TEXT" style="rounded=0;whiteSpace=wrap;html=1;fontSize=20;" parent="1" vertex="1">
          <mxGeometry x="700" y="720" width="290" height="55" as="geometry" />
        </mxCell>
        <mxCell id="YNnDj2XPzIRengbEFi6l-1" value="BUTTON" style="rounded=0;whiteSpace=wrap;html=1;" vertex="1" parent="1">
          <mxGeometry x="810" y="80.5" width="90" height="30" as="geometry" />
        </mxCell>
        <mxCell id="YNnDj2XPzIRengbEFi6l-2" value="BUTTON" style="rounded=0;whiteSpace=wrap;html=1;" vertex="1" parent="1">
          <mxGeometry x="700" y="80.5" width="90" height="30" as="geometry" />
        </mxCell>
        <mxCell id="YNnDj2XPzIRengbEFi6l-3" value="TEXT" style="rounded=0;whiteSpace=wrap;html=1;" vertex="1" parent="1">
          <mxGeometry x="1140" y="80.5" width="90" height="30" as="geometry" />
        </mxCell>
        <mxCell id="YNnDj2XPzIRengbEFi6l-4" value="TEXT" style="rounded=0;whiteSpace=wrap;html=1;" vertex="1" parent="1">
          <mxGeometry x="105" y="160" width="245" height="20" as="geometry" />
        </mxCell>
        <mxCell id="YNnDj2XPzIRengbEFi6l-5" value="BUTTON" style="rounded=0;whiteSpace=wrap;html=1;fontSize=20;" vertex="1" parent="1">
          <mxGeometry x="175" y="645" width="125" height="40" as="geometry" />
        </mxCell>
        <mxCell id="YNnDj2XPzIRengbEFi6l-6" value="BUTTON" style="rounded=0;whiteSpace=wrap;html=1;fontSize=20;" vertex="1" parent="1">
          <mxGeometry x="175" y="530" width="125" height="40" as="geometry" />
        </mxCell>
        <mxCell id="YNnDj2XPzIRengbEFi6l-9" value="" style="rounded=0;whiteSpace=wrap;html=1;" vertex="1" parent="1">
          <mxGeometry x="80" y="845" width="1170" height="455" as="geometry" />
        </mxCell>
        <mxCell id="YNnDj2XPzIRengbEFi6l-10" value="TEXT" style="rounded=0;whiteSpace=wrap;html=1;fontSize=20;" vertex="1" parent="1">
          <mxGeometry x="255" y="1000" width="280" height="20" as="geometry" />
        </mxCell>
        <mxCell id="YNnDj2XPzIRengbEFi6l-11" value="IMAGE" style="rounded=0;whiteSpace=wrap;html=1;fontSize=20;" vertex="1" parent="1">
          <mxGeometry x="175" y="977.5" width="70" height="65" as="geometry" />
        </mxCell>
        <mxCell id="YNnDj2XPzIRengbEFi6l-12" value="TEXT" style="rounded=0;whiteSpace=wrap;html=1;fontSize=20;" vertex="1" parent="1">
          <mxGeometry x="440" y="850" width="440" height="40" as="geometry" />
        </mxCell>
        <mxCell id="YNnDj2XPzIRengbEFi6l-13" value="TEXT" style="rounded=0;whiteSpace=wrap;html=1;fontSize=20;" vertex="1" parent="1">
          <mxGeometry x="255" y="1077.5" width="280" height="20" as="geometry" />
        </mxCell>
        <mxCell id="YNnDj2XPzIRengbEFi6l-14" value="IMAGE" style="rounded=0;whiteSpace=wrap;html=1;fontSize=20;" vertex="1" parent="1">
          <mxGeometry x="175" y="1055" width="70" height="65" as="geometry" />
        </mxCell>
        <mxCell id="YNnDj2XPzIRengbEFi6l-15" value="TEXT" style="rounded=0;whiteSpace=wrap;html=1;fontSize=20;" vertex="1" parent="1">
          <mxGeometry x="255" y="1162.5" width="280" height="20" as="geometry" />
        </mxCell>
        <mxCell id="YNnDj2XPzIRengbEFi6l-16" value="IMAGE" style="rounded=0;whiteSpace=wrap;html=1;fontSize=20;" vertex="1" parent="1">
          <mxGeometry x="175" y="1140" width="70" height="65" as="geometry" />
        </mxCell>
        <mxCell id="YNnDj2XPzIRengbEFi6l-17" value="TEXT" style="rounded=0;whiteSpace=wrap;html=1;fontSize=20;" vertex="1" parent="1">
          <mxGeometry x="255" y="1247.5" width="280" height="20" as="geometry" />
        </mxCell>
        <mxCell id="YNnDj2XPzIRengbEFi6l-18" value="IMAGE" style="rounded=0;whiteSpace=wrap;html=1;fontSize=20;" vertex="1" parent="1">
          <mxGeometry x="175" y="1225" width="70" height="65" as="geometry" />
        </mxCell>
        <mxCell id="YNnDj2XPzIRengbEFi6l-19" value="TEXT" style="rounded=0;whiteSpace=wrap;html=1;fontSize=20;" vertex="1" parent="1">
          <mxGeometry x="255" y="922.5" width="280" height="20" as="geometry" />
        </mxCell>
        <mxCell id="YNnDj2XPzIRengbEFi6l-20" value="IMAGE" style="rounded=0;whiteSpace=wrap;html=1;fontSize=20;" vertex="1" parent="1">
          <mxGeometry x="175" y="900" width="70" height="65" as="geometry" />
        </mxCell>
        <mxCell id="YNnDj2XPzIRengbEFi6l-22" value="&lt;font style=&quot;font-size: 40px;&quot;&gt;IMAGE&lt;/font&gt;" style="rounded=0;whiteSpace=wrap;html=1;fontSize=20;" vertex="1" parent="1">
          <mxGeometry x="767.78" y="982.5" width="341.93" height="317.5" as="geometry" />
        </mxCell>
        <mxCell id="YNnDj2XPzIRengbEFi6l-23" value="" style="rounded=0;whiteSpace=wrap;html=1;" vertex="1" parent="1">
          <mxGeometry x="80" y="1300" width="1170" height="455" as="geometry" />
        </mxCell>
        <mxCell id="YNnDj2XPzIRengbEFi6l-24" value="TEXT" style="rounded=0;whiteSpace=wrap;html=1;fontSize=20;" vertex="1" parent="1">
          <mxGeometry x="510" y="1310" width="310" height="40" as="geometry" />
        </mxCell>
        <mxCell id="YNnDj2XPzIRengbEFi6l-25" value="&lt;font style=&quot;font-size: 12px;&quot;&gt;BUTTON&lt;/font&gt;" style="rounded=0;whiteSpace=wrap;html=1;fontSize=20;" vertex="1" parent="1">
          <mxGeometry x="100" y="1505" width="50" height="45" as="geometry" />
        </mxCell>
        <mxCell id="YNnDj2XPzIRengbEFi6l-26" value="&lt;font style=&quot;font-size: 12px;&quot;&gt;BUTTON&lt;/font&gt;" style="rounded=0;whiteSpace=wrap;html=1;fontSize=20;" vertex="1" parent="1">
          <mxGeometry x="1180" y="1505" width="50" height="45" as="geometry" />
        </mxCell>
        <mxCell id="YNnDj2XPzIRengbEFi6l-27" value="IMAGE" style="rounded=0;whiteSpace=wrap;html=1;fontSize=20;" vertex="1" parent="1">
          <mxGeometry x="254.04" y="1368.75" width="205.96" height="317.5" as="geometry" />
        </mxCell>
        <mxCell id="YNnDj2XPzIRengbEFi6l-28" value="IMAGE" style="rounded=0;whiteSpace=wrap;html=1;fontSize=20;" vertex="1" parent="1">
          <mxGeometry x="562.02" y="1368.75" width="205.96" height="317.5" as="geometry" />
        </mxCell>
        <mxCell id="YNnDj2XPzIRengbEFi6l-29" value="IMAGE" style="rounded=0;whiteSpace=wrap;html=1;fontSize=20;" vertex="1" parent="1">
          <mxGeometry x="870" y="1368.75" width="205.96" height="317.5" as="geometry" />
        </mxCell>
        <mxCell id="YNnDj2XPzIRengbEFi6l-30" value="BUTTON" style="rounded=0;whiteSpace=wrap;html=1;fontSize=20;" vertex="1" parent="1">
          <mxGeometry x="575" y="1700" width="180" height="40" as="geometry" />
        </mxCell>
        <mxCell id="YNnDj2XPzIRengbEFi6l-31" value="" style="rounded=0;whiteSpace=wrap;html=1;" vertex="1" parent="1">
          <mxGeometry x="80" y="1755" width="1170" height="455" as="geometry" />
        </mxCell>
        <mxCell id="YNnDj2XPzIRengbEFi6l-32" value="&lt;font style=&quot;font-size: 12px;&quot;&gt;BUTTON&lt;/font&gt;" style="rounded=0;whiteSpace=wrap;html=1;fontSize=20;" vertex="1" parent="1">
          <mxGeometry x="640" y="1810" width="50" height="45" as="geometry" />
        </mxCell>
        <mxCell id="YNnDj2XPzIRengbEFi6l-33" value="&lt;font style=&quot;font-size: 12px;&quot;&gt;BUTTON&lt;/font&gt;" style="rounded=0;whiteSpace=wrap;html=1;fontSize=20;" vertex="1" parent="1">
          <mxGeometry x="565" y="1810" width="50" height="45" as="geometry" />
        </mxCell>
        <mxCell id="YNnDj2XPzIRengbEFi6l-34" value="&lt;font style=&quot;font-size: 12px;&quot;&gt;BUTTON&lt;/font&gt;" style="rounded=0;whiteSpace=wrap;html=1;fontSize=20;" vertex="1" parent="1">
          <mxGeometry x="712.5" y="1810" width="50" height="45" as="geometry" />
        </mxCell>
        <mxCell id="YNnDj2XPzIRengbEFi6l-35" value="TEXT" style="rounded=0;whiteSpace=wrap;html=1;fontSize=20;" vertex="1" parent="1">
          <mxGeometry x="185" y="1930" width="245" height="70" as="geometry" />
        </mxCell>
        <mxCell id="YNnDj2XPzIRengbEFi6l-36" value="TEXT" style="rounded=0;whiteSpace=wrap;html=1;fontSize=20;" vertex="1" parent="1">
          <mxGeometry x="185" y="2050" width="310" height="20" as="geometry" />
        </mxCell>
        <mxCell id="YNnDj2XPzIRengbEFi6l-37" value="TEXT" style="rounded=0;whiteSpace=wrap;html=1;fontSize=20;" vertex="1" parent="1">
          <mxGeometry x="185" y="2012.5" width="310" height="20" as="geometry" />
        </mxCell>
        <mxCell id="YNnDj2XPzIRengbEFi6l-38" value="&lt;font style=&quot;font-size: 40px;&quot;&gt;VIDEO&lt;/font&gt;" style="rounded=0;whiteSpace=wrap;html=1;fontSize=20;" vertex="1" parent="1">
          <mxGeometry x="740" y="1880" width="280.01" height="260" as="geometry" />
        </mxCell>
        <mxCell id="YNnDj2XPzIRengbEFi6l-39" value="" style="rounded=0;whiteSpace=wrap;html=1;" vertex="1" parent="1">
          <mxGeometry x="80" y="2210" width="1170" height="455" as="geometry" />
        </mxCell>
        <mxCell id="YNnDj2XPzIRengbEFi6l-40" value="TEXT" style="rounded=0;whiteSpace=wrap;html=1;fontSize=20;" vertex="1" parent="1">
          <mxGeometry x="510" y="2230" width="310" height="40" as="geometry" />
        </mxCell>
        <mxCell id="YNnDj2XPzIRengbEFi6l-41" value="BUTTON" style="rounded=0;whiteSpace=wrap;html=1;fontSize=20;" vertex="1" parent="1">
          <mxGeometry x="205" y="2360" width="125" height="25" as="geometry" />
        </mxCell>
        <mxCell id="YNnDj2XPzIRengbEFi6l-42" value="BUTTON" style="rounded=0;whiteSpace=wrap;html=1;fontSize=20;" vertex="1" parent="1">
          <mxGeometry x="205" y="2400" width="125" height="25" as="geometry" />
        </mxCell>
        <mxCell id="YNnDj2XPzIRengbEFi6l-43" value="BUTTON" style="rounded=0;whiteSpace=wrap;html=1;fontSize=20;" vertex="1" parent="1">
          <mxGeometry x="205" y="2330" width="125" height="20" as="geometry" />
        </mxCell>
        <mxCell id="YNnDj2XPzIRengbEFi6l-44" value="BUTTON" style="rounded=0;whiteSpace=wrap;html=1;fontSize=20;" vertex="1" parent="1">
          <mxGeometry x="205" y="2475" width="125" height="25" as="geometry" />
        </mxCell>
        <mxCell id="YNnDj2XPzIRengbEFi6l-45" value="BUTTON" style="rounded=0;whiteSpace=wrap;html=1;fontSize=20;" vertex="1" parent="1">
          <mxGeometry x="205" y="2510" width="125" height="25" as="geometry" />
        </mxCell>
        <mxCell id="YNnDj2XPzIRengbEFi6l-46" value="BUTTON" style="rounded=0;whiteSpace=wrap;html=1;fontSize=20;" vertex="1" parent="1">
          <mxGeometry x="205" y="2440" width="125" height="20" as="geometry" />
        </mxCell>
        <mxCell id="YNnDj2XPzIRengbEFi6l-48" value="&lt;font style=&quot;font-size: 40px;&quot;&gt;IMAGE&lt;/font&gt;" style="rounded=0;whiteSpace=wrap;html=1;fontSize=20;" vertex="1" parent="1">
          <mxGeometry x="450" y="2307.5" width="520" height="260" as="geometry" />
        </mxCell>
        <mxCell id="YNnDj2XPzIRengbEFi6l-49" value="" style="rounded=0;whiteSpace=wrap;html=1;" vertex="1" parent="1">
          <mxGeometry x="80" y="2665" width="1170" height="455" as="geometry" />
        </mxCell>
        <mxCell id="YNnDj2XPzIRengbEFi6l-50" value="TEXT" style="rounded=0;whiteSpace=wrap;html=1;fontSize=20;" vertex="1" parent="1">
          <mxGeometry x="510" y="2700" width="310" height="30" as="geometry" />
        </mxCell>
        <mxCell id="YNnDj2XPzIRengbEFi6l-51" value="TEXT" style="rounded=0;whiteSpace=wrap;html=1;fontSize=20;" vertex="1" parent="1">
          <mxGeometry x="550" y="2670" width="230" height="20" as="geometry" />
        </mxCell>
        <mxCell id="YNnDj2XPzIRengbEFi6l-52" value="" style="rounded=0;whiteSpace=wrap;html=1;fontSize=20;" vertex="1" parent="1">
          <mxGeometry x="230" y="2740" width="880" height="360" as="geometry" />
        </mxCell>
        <mxCell id="YNnDj2XPzIRengbEFi6l-53" value="&lt;font style=&quot;font-size: 40px;&quot;&gt;IMAGE&lt;/font&gt;" style="rounded=0;whiteSpace=wrap;html=1;fontSize=20;" vertex="1" parent="1">
          <mxGeometry x="260" y="2780" width="200" height="120" as="geometry" />
        </mxCell>
        <mxCell id="YNnDj2XPzIRengbEFi6l-54" value="&lt;font style=&quot;font-size: 40px;&quot;&gt;IMAGE&lt;/font&gt;" style="rounded=0;whiteSpace=wrap;html=1;fontSize=20;" vertex="1" parent="1">
          <mxGeometry x="565" y="2780" width="200" height="120" as="geometry" />
        </mxCell>
        <mxCell id="YNnDj2XPzIRengbEFi6l-55" value="&lt;font style=&quot;font-size: 40px;&quot;&gt;IMAGE&lt;/font&gt;" style="rounded=0;whiteSpace=wrap;html=1;fontSize=20;" vertex="1" parent="1">
          <mxGeometry x="565" y="2930" width="200" height="120" as="geometry" />
        </mxCell>
        <mxCell id="YNnDj2XPzIRengbEFi6l-56" value="&lt;font style=&quot;font-size: 40px;&quot;&gt;IMAGE&lt;/font&gt;" style="rounded=0;whiteSpace=wrap;html=1;fontSize=20;" vertex="1" parent="1">
          <mxGeometry x="260" y="2930" width="200" height="120" as="geometry" />
        </mxCell>
        <mxCell id="YNnDj2XPzIRengbEFi6l-57" value="&lt;font style=&quot;font-size: 40px;&quot;&gt;IMAGE&lt;/font&gt;" style="rounded=0;whiteSpace=wrap;html=1;fontSize=20;" vertex="1" parent="1">
          <mxGeometry x="880" y="2780" width="200" height="120" as="geometry" />
        </mxCell>
        <mxCell id="YNnDj2XPzIRengbEFi6l-58" value="&lt;font style=&quot;font-size: 40px;&quot;&gt;IMAGE&lt;/font&gt;" style="rounded=0;whiteSpace=wrap;html=1;fontSize=20;" vertex="1" parent="1">
          <mxGeometry x="880" y="2930" width="200" height="120" as="geometry" />
        </mxCell>
        <mxCell id="YNnDj2XPzIRengbEFi6l-59" value="BUTTON" style="rounded=0;whiteSpace=wrap;html=1;fontSize=20;" vertex="1" parent="1">
          <mxGeometry x="917.5" y="3060" width="125" height="25" as="geometry" />
        </mxCell>
        <mxCell id="YNnDj2XPzIRengbEFi6l-60" value="TEXT" style="rounded=0;whiteSpace=wrap;html=1;fontSize=20;" vertex="1" parent="1">
          <mxGeometry x="540" y="2750" width="250" height="20" as="geometry" />
        </mxCell>
        <mxCell id="YNnDj2XPzIRengbEFi6l-61" value="" style="rounded=0;whiteSpace=wrap;html=1;" vertex="1" parent="1">
          <mxGeometry x="80" y="3120" width="1170" height="690" as="geometry" />
        </mxCell>
        <mxCell id="YNnDj2XPzIRengbEFi6l-62" value="BUTTON" style="rounded=0;whiteSpace=wrap;html=1;fontSize=20;" vertex="1" parent="1">
          <mxGeometry x="120.29" y="3140" width="110" height="20" as="geometry" />
        </mxCell>
        <mxCell id="YNnDj2XPzIRengbEFi6l-63" value="BUTTON" style="rounded=0;whiteSpace=wrap;html=1;fontSize=20;" vertex="1" parent="1">
          <mxGeometry x="330.29" y="3140" width="110" height="20" as="geometry" />
        </mxCell>
        <mxCell id="YNnDj2XPzIRengbEFi6l-64" value="BUTTON" style="rounded=0;whiteSpace=wrap;html=1;fontSize=20;" vertex="1" parent="1">
          <mxGeometry x="540.29" y="3140" width="110" height="20" as="geometry" />
        </mxCell>
        <mxCell id="YNnDj2XPzIRengbEFi6l-66" value="BUTTON" style="rounded=0;whiteSpace=wrap;html=1;fontSize=20;" vertex="1" parent="1">
          <mxGeometry x="737.79" y="3140" width="110" height="20" as="geometry" />
        </mxCell>
        <mxCell id="YNnDj2XPzIRengbEFi6l-67" value="BUTTON" style="rounded=0;whiteSpace=wrap;html=1;fontSize=20;" vertex="1" parent="1">
          <mxGeometry x="1110.29" y="3140" width="110" height="20" as="geometry" />
        </mxCell>
        <mxCell id="YNnDj2XPzIRengbEFi6l-69" value="BUTTON" style="rounded=0;whiteSpace=wrap;html=1;fontSize=20;" vertex="1" parent="1">
          <mxGeometry x="120.29" y="3170" width="110" height="20" as="geometry" />
        </mxCell>
        <mxCell id="YNnDj2XPzIRengbEFi6l-70" value="BUTTON" style="rounded=0;whiteSpace=wrap;html=1;fontSize=20;" vertex="1" parent="1">
          <mxGeometry x="330.29" y="3170" width="110" height="20" as="geometry" />
        </mxCell>
        <mxCell id="YNnDj2XPzIRengbEFi6l-71" value="BUTTON" style="rounded=0;whiteSpace=wrap;html=1;fontSize=20;" vertex="1" parent="1">
          <mxGeometry x="540.29" y="3170" width="110" height="20" as="geometry" />
        </mxCell>
        <mxCell id="YNnDj2XPzIRengbEFi6l-72" value="BUTTON" style="rounded=0;whiteSpace=wrap;html=1;fontSize=20;" vertex="1" parent="1">
          <mxGeometry x="737.79" y="3170" width="110" height="20" as="geometry" />
        </mxCell>
        <mxCell id="YNnDj2XPzIRengbEFi6l-73" value="BUTTON" style="rounded=0;whiteSpace=wrap;html=1;fontSize=20;" vertex="1" parent="1">
          <mxGeometry x="1110.29" y="3170" width="110" height="20" as="geometry" />
        </mxCell>
        <mxCell id="YNnDj2XPzIRengbEFi6l-74" value="BUTTON" style="rounded=0;whiteSpace=wrap;html=1;fontSize=20;" vertex="1" parent="1">
          <mxGeometry x="120.00000000000001" y="3200" width="110" height="20" as="geometry" />
        </mxCell>
        <mxCell id="YNnDj2XPzIRengbEFi6l-75" value="BUTTON" style="rounded=0;whiteSpace=wrap;html=1;fontSize=20;" vertex="1" parent="1">
          <mxGeometry x="330" y="3200" width="110" height="20" as="geometry" />
        </mxCell>
        <mxCell id="YNnDj2XPzIRengbEFi6l-76" value="BUTTON" style="rounded=0;whiteSpace=wrap;html=1;fontSize=20;" vertex="1" parent="1">
          <mxGeometry x="540" y="3200" width="110" height="20" as="geometry" />
        </mxCell>
        <mxCell id="YNnDj2XPzIRengbEFi6l-77" value="BUTTON" style="rounded=0;whiteSpace=wrap;html=1;fontSize=20;" vertex="1" parent="1">
          <mxGeometry x="737.5" y="3200" width="110" height="20" as="geometry" />
        </mxCell>
        <mxCell id="YNnDj2XPzIRengbEFi6l-78" value="BUTTON" style="rounded=0;whiteSpace=wrap;html=1;fontSize=20;" vertex="1" parent="1">
          <mxGeometry x="1110" y="3200" width="110" height="20" as="geometry" />
        </mxCell>
        <mxCell id="YNnDj2XPzIRengbEFi6l-79" value="BUTTON" style="rounded=0;whiteSpace=wrap;html=1;fontSize=20;" vertex="1" parent="1">
          <mxGeometry x="120.29" y="3230" width="110" height="20" as="geometry" />
        </mxCell>
        <mxCell id="YNnDj2XPzIRengbEFi6l-80" value="BUTTON" style="rounded=0;whiteSpace=wrap;html=1;fontSize=20;" vertex="1" parent="1">
          <mxGeometry x="330.29" y="3230" width="110" height="20" as="geometry" />
        </mxCell>
        <mxCell id="YNnDj2XPzIRengbEFi6l-81" value="BUTTON" style="rounded=0;whiteSpace=wrap;html=1;fontSize=20;" vertex="1" parent="1">
          <mxGeometry x="540.29" y="3230" width="110" height="20" as="geometry" />
        </mxCell>
        <mxCell id="YNnDj2XPzIRengbEFi6l-82" value="BUTTON" style="rounded=0;whiteSpace=wrap;html=1;fontSize=20;" vertex="1" parent="1">
          <mxGeometry x="737.79" y="3230" width="110" height="20" as="geometry" />
        </mxCell>
        <mxCell id="YNnDj2XPzIRengbEFi6l-84" value="BUTTON" style="rounded=0;whiteSpace=wrap;html=1;fontSize=20;" vertex="1" parent="1">
          <mxGeometry x="120.00000000000001" y="3260" width="110" height="20" as="geometry" />
        </mxCell>
        <mxCell id="YNnDj2XPzIRengbEFi6l-85" value="BUTTON" style="rounded=0;whiteSpace=wrap;html=1;fontSize=20;" vertex="1" parent="1">
          <mxGeometry x="330" y="3260" width="110" height="20" as="geometry" />
        </mxCell>
        <mxCell id="YNnDj2XPzIRengbEFi6l-87" value="BUTTON" style="rounded=0;whiteSpace=wrap;html=1;fontSize=20;" vertex="1" parent="1">
          <mxGeometry x="737.5" y="3260" width="110" height="20" as="geometry" />
        </mxCell>
        <mxCell id="YNnDj2XPzIRengbEFi6l-91" value="BUTTON" style="rounded=0;whiteSpace=wrap;html=1;fontSize=20;" vertex="1" parent="1">
          <mxGeometry x="120.00000000000001" y="3290" width="110" height="20" as="geometry" />
        </mxCell>
        <mxCell id="YNnDj2XPzIRengbEFi6l-92" value="BUTTON" style="rounded=0;whiteSpace=wrap;html=1;fontSize=20;" vertex="1" parent="1">
          <mxGeometry x="330" y="3290" width="110" height="20" as="geometry" />
        </mxCell>
        <mxCell id="YNnDj2XPzIRengbEFi6l-94" value="BUTTON" style="rounded=0;whiteSpace=wrap;html=1;fontSize=20;" vertex="1" parent="1">
          <mxGeometry x="737.5" y="3290" width="110" height="20" as="geometry" />
        </mxCell>
        <mxCell id="YNnDj2XPzIRengbEFi6l-96" value="BUTTON" style="rounded=0;whiteSpace=wrap;html=1;fontSize=20;" vertex="1" parent="1">
          <mxGeometry x="925.14" y="3140" width="110" height="20" as="geometry" />
        </mxCell>
        <mxCell id="YNnDj2XPzIRengbEFi6l-97" value="BUTTON" style="rounded=0;whiteSpace=wrap;html=1;fontSize=20;" vertex="1" parent="1">
          <mxGeometry x="925.14" y="3170" width="110" height="20" as="geometry" />
        </mxCell>
        <mxCell id="YNnDj2XPzIRengbEFi6l-98" value="BUTTON" style="rounded=0;whiteSpace=wrap;html=1;fontSize=20;" vertex="1" parent="1">
          <mxGeometry x="924.85" y="3200" width="110" height="20" as="geometry" />
        </mxCell>
        <mxCell id="YNnDj2XPzIRengbEFi6l-99" value="BUTTON" style="rounded=0;whiteSpace=wrap;html=1;fontSize=20;" vertex="1" parent="1">
          <mxGeometry x="925.43" y="3230" width="110" height="20" as="geometry" />
        </mxCell>
        <mxCell id="YNnDj2XPzIRengbEFi6l-100" value="BUTTON" style="rounded=0;whiteSpace=wrap;html=1;fontSize=20;" vertex="1" parent="1">
          <mxGeometry x="925.43" y="3260" width="110" height="20" as="geometry" />
        </mxCell>
        <mxCell id="YNnDj2XPzIRengbEFi6l-101" value="BUTTON" style="rounded=0;whiteSpace=wrap;html=1;fontSize=20;" vertex="1" parent="1">
          <mxGeometry x="925.14" y="3290" width="110" height="20" as="geometry" />
        </mxCell>
        <mxCell id="YNnDj2XPzIRengbEFi6l-102" value="BUTTON" style="rounded=0;whiteSpace=wrap;html=1;fontSize=20;" vertex="1" parent="1">
          <mxGeometry x="120.58000000000001" y="3320" width="110" height="20" as="geometry" />
        </mxCell>
        <mxCell id="YNnDj2XPzIRengbEFi6l-103" value="BUTTON" style="rounded=0;whiteSpace=wrap;html=1;fontSize=20;" vertex="1" parent="1">
          <mxGeometry x="120.28999999999999" y="3350" width="110" height="20" as="geometry" />
        </mxCell>
        <mxCell id="YNnDj2XPzIRengbEFi6l-104" value="BUTTON" style="rounded=0;whiteSpace=wrap;html=1;fontSize=20;" vertex="1" parent="1">
          <mxGeometry x="120.58000000000001" y="3380" width="110" height="20" as="geometry" />
        </mxCell>
        <mxCell id="YNnDj2XPzIRengbEFi6l-105" value="BUTTON" style="rounded=0;whiteSpace=wrap;html=1;fontSize=20;" vertex="1" parent="1">
          <mxGeometry x="120.28999999999999" y="3410" width="110" height="20" as="geometry" />
        </mxCell>
        <mxCell id="YNnDj2XPzIRengbEFi6l-106" value="BUTTON" style="rounded=0;whiteSpace=wrap;html=1;fontSize=20;" vertex="1" parent="1">
          <mxGeometry x="120.28999999999999" y="3440" width="110" height="20" as="geometry" />
        </mxCell>
        <mxCell id="YNnDj2XPzIRengbEFi6l-109" value="" style="endArrow=none;html=1;rounded=0;" edge="1" parent="1">
          <mxGeometry width="50" height="50" relative="1" as="geometry">
            <mxPoint x="120.58" y="3490" as="sourcePoint" />
            <mxPoint x="1225.58" y="3490" as="targetPoint" />
          </mxGeometry>
        </mxCell>
        <mxCell id="YNnDj2XPzIRengbEFi6l-111" value="BUTTON" style="rounded=0;whiteSpace=wrap;html=1;fontSize=20;" vertex="1" parent="1">
          <mxGeometry x="120" y="3520" width="110" height="20" as="geometry" />
        </mxCell>
        <mxCell id="YNnDj2XPzIRengbEFi6l-112" value="TEXT" style="rounded=0;whiteSpace=wrap;html=1;fontSize=20;" vertex="1" parent="1">
          <mxGeometry x="120" y="3560" width="150" height="20" as="geometry" />
        </mxCell>
        <mxCell id="YNnDj2XPzIRengbEFi6l-113" value="TEXT" style="rounded=0;whiteSpace=wrap;html=1;fontSize=20;" vertex="1" parent="1">
          <mxGeometry x="120.58" y="3590" width="150" height="20" as="geometry" />
        </mxCell>
        <mxCell id="YNnDj2XPzIRengbEFi6l-114" value="&lt;font style=&quot;font-size: 12px;&quot;&gt;BUTTON&lt;/font&gt;" style="rounded=0;whiteSpace=wrap;html=1;fontSize=20;" vertex="1" parent="1">
          <mxGeometry x="120" y="3640" width="50.58" height="45.98" as="geometry" />
        </mxCell>
        <mxCell id="YNnDj2XPzIRengbEFi6l-116" value="&lt;font style=&quot;font-size: 12px;&quot;&gt;BUTTON&lt;/font&gt;" style="rounded=0;whiteSpace=wrap;html=1;fontSize=20;" vertex="1" parent="1">
          <mxGeometry x="192.21" y="3640" width="50.58" height="45.98" as="geometry" />
        </mxCell>
        <mxCell id="YNnDj2XPzIRengbEFi6l-117" value="TEXT" style="rounded=0;whiteSpace=wrap;html=1;fontSize=20;" vertex="1" parent="1">
          <mxGeometry x="119.42" y="3710" width="180.58" height="20" as="geometry" />
        </mxCell>
        <mxCell id="YNnDj2XPzIRengbEFi6l-118" value="TEXT" style="rounded=0;whiteSpace=wrap;html=1;fontSize=20;" vertex="1" parent="1">
          <mxGeometry x="120" y="3740" width="180" height="20" as="geometry" />
        </mxCell>
      </root>
    </mxGraphModel>
  </diagram>
</mxfile>
